<?xml version="1.0" encoding="utf-8"?>
<!-- Generator: Adobe Illustrator 23.0.6, SVG Export Plug-In . SVG Version: 6.00 Build 0)  -->
<svg version="1.1" id="Layer_1" xmlns="http://www.w3.org/2000/svg" xmlns:xlink="http://www.w3.org/1999/xlink" x="0px" y="0px"
	 viewBox="0 0 306.01 153.79" style="enable-background:new 0 0 306.01 153.79;" xml:space="preserve">
<g>
	<g>
		<path class="st0" d="M65.89,98.63v-7.04l-0.81-0.64h-0.93l-0.87,0.64v7.27l11.34,5.47v17.51l-3.49,3.2H57.98l-3.43-3.2v-13.9h8.73
			v9.83l0.87,0.64h0.93l0.81-0.64v-9.72l-11.35-5.47V87.51l3.43-3.2h13.15l3.49,3.2v11.11H65.89z"/>
		<path class="st0" d="M77.24,90.95v-6.63h19.78v6.63h-5.53v34.1h-8.73v-34.1H77.24z"/>
		<path class="st0" d="M119.82,87.51v14.72l-2.27,1.92l2.27,1.98v18.91h-8.73v-16.99l-0.81-0.64h-1.8v17.63h-8.73V84.31h16.58
			L119.82,87.51z M111.1,100.14v-8.55l-0.81-0.64h-1.8v9.83h1.8L111.1,100.14z"/>
		<path class="st0" d="M131.81,91.01v9.13h5.01v6.63h-5.01v11.64h5.53v6.63h-14.26V84.37h14.26v6.63H131.81z"/>
		<path class="st0" d="M160.56,84.31v40.73h-7.97l-3.96-16.81v16.81h-8.15V84.31h8.03l3.9,16.81V84.31H160.56z"/>
		<path class="st0" d="M175.16,99.33v-7.74l-0.81-0.64h-0.99l-0.87,0.64v26.18l0.87,0.64h0.99l0.81-0.64v-6.87h-1.63v-6.58h10.29
			v20.71h-3.9l-1.63-1.63l-2.21,1.63h-8.84l-3.43-3.2V87.51l3.43-3.2h13.09l3.49,3.2v11.81H175.16z"/>
		<path class="st0" d="M186.39,90.95v-6.63h19.79v6.63h-5.53v34.1h-8.73v-34.1H186.39z"/>
		<path class="st0" d="M228.92,84.31v40.73h-8.67v-18.27h-2.68v18.27h-8.67V84.31h8.67v15.82h2.68V84.31H228.92z"/>
	</g>
	<g>
		<path class="st0" d="M85.25,16.91v57.41l-5.34,4.9H59.79l-5.25-4.9V16.91H67.9v51.18l1.33,0.98h1.42l1.25-0.98V16.91H85.25z"/>
		<path class="st0" d="M120.95,21.8v22.52l-3.47,2.94l3.47,3.03v28.93h-13.35V53.23l-1.24-0.98h-2.76v26.97H90.24V16.91h25.37
			L120.95,21.8z M107.59,41.12V28.04l-1.24-0.98h-2.76V42.1h2.76L107.59,41.12z"/>
		<path class="st0" d="M156.64,21.8v21.27l-2.93,2.85l2.93,2.94v25.46l-5.34,4.9h-25.37V16.91h25.37L156.64,21.8z M139.28,41.12
			h2.76l1.25-0.98V28.57l-1.25-1.51h-2.76V41.12z M143.29,68.09v-15.4l-1.25-1.42h-2.76v17.8h2.76L143.29,68.09z"/>
		<path class="st0" d="M179.96,66.93h-4.89L174,79.22h-13.26l7.84-62.31h17.89l7.83,62.31h-13.36L179.96,66.93z M179.07,56.79
			l-1.6-17.89l-1.52,17.89H179.07z"/>
		<path class="st0" d="M228.92,16.91v62.31h-12.19l-6.05-25.72v25.72h-12.46V16.91h12.28l5.96,25.72V16.91H228.92z"/>
	</g>
	<g>
		<path class="st0" d="M17.32,153.19l0-22.51h7.38l0,22.51H17.32z"/>
		<path class="st0" d="M52.13,142.97l-0.28-5.13l-0.01-7.16h7.06l0,22.51H52l-8.04-12.26l0.28,5.13l0,7.13h-7.07l0-22.51h6.91
			L52.13,142.97z"/>
		<path class="st0" d="M82.88,137.22c-0.12-0.71-0.47-1.22-1.05-1.53c-0.51-0.27-1.14-0.41-1.92-0.41c-1.56,0-2.34,0.43-2.34,1.29
			c0.01,0.04,0.01,0.07,0.02,0.09l-0.01,0.12c0.09,0.52,0.48,0.92,1.17,1.21c0.69,0.28,1.76,0.6,3.21,0.95
			c1.22,0.31,2.23,0.59,3.01,0.83c0.79,0.24,1.56,0.57,2.35,1c0.79,0.43,1.45,0.98,2.01,1.66c0.56,0.68,0.92,1.48,1.09,2.42
			c0.07,0.38,0.09,0.77,0.08,1.19c0.01,2.54-0.94,4.47-2.86,5.78c-1.91,1.31-4.46,1.97-7.65,1.97c-1.36,0-2.61-0.17-3.75-0.52
			c-1.15-0.34-2.15-0.82-3-1.42c-0.86-0.6-1.56-1.31-2.09-2.11c-0.54-0.8-0.89-1.68-1.06-2.61c-0.05-0.27-0.08-0.56-0.09-0.88h7.06
			c0.16,0.79,0.57,1.39,1.22,1.78c0.58,0.38,1.29,0.56,2.1,0.56c0.94,0,1.69-0.15,2.23-0.44c0.55-0.29,0.83-0.7,0.82-1.22
			c-0.01-0.04-0.01-0.08,0.01-0.12l-0.02-0.1c-0.09-0.52-0.47-0.91-1.15-1.19c-0.67-0.27-1.72-0.59-3.13-0.94
			c-1.22-0.29-2.22-0.56-3.02-0.8c-0.79-0.24-1.59-0.58-2.38-1.02c-0.79-0.44-1.47-1-2.03-1.69c-0.56-0.69-0.93-1.53-1.11-2.53
			c-0.07-0.4-0.1-0.82-0.1-1.28c-0.01-2.31,0.88-4.09,2.67-5.33c1.79-1.24,4.15-1.86,7.07-1.86c1.48,0,2.79,0.17,3.92,0.52
			c1.14,0.34,2.09,0.83,2.87,1.47c0.78,0.64,1.4,1.39,1.87,2.25c0.47,0.86,0.79,1.83,0.98,2.89H82.88z"/>
		<path class="st0" d="M100.43,130.68h20.64l0.01,5.91h-6.62l-0.01,16.6h-7.38l0.01-16.6h-6.63L100.43,130.68z"/>
		<path class="st0" d="M132.33,153.19l0-22.51h7.38l-0.01,22.51H132.33z"/>
		<path class="st0" d="M151,130.68h20.63l0.01,5.91h-6.63l-0.01,16.6h-7.37l0.01-16.6h-6.63L151,130.68z"/>
		<path class="st0" d="M182.71,130.68h7.38v13.47c0.01,0.63,0.04,1.15,0.12,1.56c0.14,0.81,0.47,1.45,0.97,1.89
			c0.51,0.45,1.3,0.67,2.39,0.67c1.25,0,2.14-0.36,2.65-1.08c0.52-0.72,0.78-1.74,0.78-3.05v-13.47h7.38l-0.01,12.72
			c0.01,3.61-0.86,6.24-2.59,7.89c-1.74,1.66-4.47,2.48-8.21,2.48c-3.11,0-5.53-0.57-7.29-1.7c-1.75-1.14-2.86-3.02-3.33-5.64
			c-0.16-0.92-0.24-1.94-0.26-3.07L182.71,130.68z"/>
		<path class="st0" d="M215.45,130.68h20.63l0.01,5.91h-6.62l-0.01,16.6h-7.38l0.01-16.6h-6.62L215.45,130.68z"/>
		<path class="st0" d="M247.34,153.19l0-22.51h18.35l-0.01,5.25h-10.97l0.01,3.22H264l0.02,5.25h-9.29l0,3.53h11.41l-0.01,5.25
			H247.34z"/>
	</g>
	<g>
		<path class="st0" d="M238.35,16.91h8.36h34.9h23.45l0.95,8.54c-3.82,4.08-22.93,23.58-50.83,36.5c-0.55,0.22-1.1,0.46-1.63,0.75
			c-3.34,1.8-3.59,8.56-3.59,21.61c0,19.43,7.59,26.31,16.19,27.86v12.87h-28.79V68.78V16.91H238.35z"/>
	</g>
	<path class="st0" d="M33.5,84.31c0-13.05-0.25-24.25-3.59-26.05l0,0C12.92,46.81,2.27,35.95,0,33.55l1.86-16.64h34.9h8.36h0.99
		v51.87v56.26H17.32v-12.87C25.92,110.63,33.5,103.75,33.5,84.31z"/>
	<g>
		<polygon class="st0" points="303.17,0 3.74,0 2.52,10.9 304.38,10.9 		"/>
	</g>
</g>
</svg>
